Coordinates
version=1
nRows=8
nColumns=46
inDegrees=yes

Units are S.I. units (second, meters, Newtons, ...)
Angles are in degrees.

endheader
time	pelvis_tilt	pelvis_list	pelvis_rotation	pelvis_tx	pelvis_ty	pelvis_tz	bb_angle	bb_tx	bb_ty	bb_tz	hip_flexion_r	hip_adduction_r	hip_rotation_r	knee_angle_r	knee_angle_r_beta	ankle_angle_r	subtalar_angle_r	mtp_angle_r	crank_angle_r	hip_flexion_l	hip_adduction_l	hip_rotation_l	knee_angle_l	knee_angle_l_beta	ankle_angle_l	subtalar_angle_l	mtp_angle_l	crank_angle_l	lumbar_extension	lumbar_bending	lumbar_rotation	arm_flex_r	arm_add_r	arm_rot_r	elbow_flex_r	pro_sup_r	wrist_flex_r	wrist_dev_r	arm_flex_l	arm_add_l	arm_rot_l	elbow_flex_l	pro_sup_l	wrist_flex_l	wrist_dev_l
      0.00000000	    -16.56635527	     -4.28396367	     -3.05528721	      0.08327365	      1.14234349	     -0.26319528	      0.00000000	      0.50000000	      0.00000000	      0.25000000	     62.37358031	     -0.16558584	     -7.74053821	     48.57085411	      0.84772132	      8.43611516	      1.08279632	      0.00000000	      0.00000000	     71.22896270	    -12.85923411	      3.11565794	    101.95246942	      1.77940627	     16.84490677	     -0.90992855	      0.00000000	      0.00000000	    -52.19478677	      0.47398882	      6.91179816	     89.85454333	      1.14861013	     15.74161341	     38.68758604	     18.22553911	      0.00000000	      0.00000000	     89.81033546	      4.30860190	     18.34233181	     36.16432626	     18.36919170	      0.00000000	      0.00000000
      0.00500000	    -16.58631077	     -4.29494251	     -3.06307671	      0.08325445	      1.14224485	     -0.26314691	      0.00000000	      0.50000000	      0.00000000	      0.25000000	     62.48326943	     -0.15854305	     -7.74523463	     48.66122805	      0.84929865	      8.54728051	      1.30303598	      0.00000000	      0.00000000	     71.19670303	    -12.87439558	      3.11399116	    101.89201320	      1.77835111	     16.87829417	     -0.91093024	      0.00000000	      0.00000000	    -52.16268992	      0.46714152	      6.92040615	     89.85454973	      1.20042767	     15.60714216	     38.32689769	     19.86470038	      0.00000000	      0.00000000	     89.81026836	      4.40370405	     18.05528113	     35.81182561	     19.99806653	      0.00000000	      0.00000000
      0.01000000	    -16.58519745	     -4.26903155	     -3.09421031	      0.08323606	      1.14225792	     -0.26306719	      0.00000000	      0.50000000	      0.00000000	      0.25000000	     62.57816031	     -0.14818658	     -7.69902474	     48.78030053	      0.85137685	      8.49355021	      1.24845948	      0.00000000	      0.00000000	     71.12584012	    -12.89853633	      3.05486190	    101.81851242	      1.77706828	     16.88583496	     -0.92677039	      0.00000000	      0.00000000	    -52.13682114	      0.42272302	      6.89611035	     89.85519632	      0.91114528	     16.58598975	     37.98639814	     20.99294262	      0.00000000	      0.00000000	     89.81106952	      4.14906086	     18.75165612	     35.52084576	     21.27448814	      0.00000000	      0.00000000
      0.01500000	    -16.51705824	     -4.28721392	     -3.02913399	      0.08320235	      1.14243888	     -0.26321091	      0.00000000	      0.50000000	      0.00000000	      0.25000000	     62.58335052	     -0.21114073	     -7.74631937	     48.90852372	      0.85361477	      8.51116948	      1.21886459	      0.00000000	      0.00000000	     70.96599988	    -12.78915734	      3.09780104	    101.71619104	      1.77528244	     16.98887358	     -0.94085733	      0.00000000	      0.00000000	    -52.26613267	      0.50799159	      6.92002356	     89.85467068	      1.35122445	     14.83122524	     37.35409426	     25.76224036	      0.00000000	      0.00000000	     89.81083907	      4.61549963	     16.88371644	     34.81875093	     25.97770054	      0.00000000	      0.00000000
      0.02000000	    -16.58381582	     -4.28308768	     -3.06916315	      0.08319755	      1.14215541	     -0.26307900	      0.00000000	      0.50000000	      0.00000000	      0.25000000	     62.76491224	     -0.16539435	     -7.66913987	     49.04920179	      0.85607007	      8.49308908	      1.13929132	      0.00000000	      0.00000000	     70.98615575	    -12.80069314	      3.06623264	    101.66515321	      1.77439166	     16.90642703	     -1.20635858	      0.00000000	      0.00000000	    -52.15710150	      0.45868034	      6.91184322	     89.85483459	      0.92730757	     16.44688972	     38.78174417	     17.35703540	      0.00000000	      0.00000000	     89.81058866	      4.23226137	     18.48515238	     36.25277523	     18.19800635	      0.00000000	      0.00000000
      0.02500000	    -16.57242085	     -4.28722040	     -3.06177356	      0.08319915	      1.14219618	     -0.26307886	      0.00000000	      0.50000000	      0.00000000	      0.25000000	     62.84011456	     -0.18493040	     -7.68317957	     49.16868912	      0.85815551	      8.44289587	      1.10615560	      0.00000000	      0.00000000	     70.92462841	    -12.81023730	      3.04661492	    101.59706598	      1.77320331	     16.92811517	     -1.13438439	      0.00000000	      0.00000000	    -52.18268878	      0.47326159	      6.93423356	     89.85450479	      1.15162664	     15.58335953	     38.29517351	     20.38965803	      0.00000000	      0.00000000	     89.81072240	      4.47144485	     17.67884919	     35.65445275	     21.06627645	      0.00000000	      0.00000000
      0.03000000	    -16.57038426	     -4.28905611	     -3.07851354	      0.08317979	      1.14215016	     -0.26303750	      0.00000000	      0.50000000	      0.00000000	      0.25000000	     62.92491361	     -0.17185746	     -7.66199393	     49.27892330	      0.86007946	      8.41993255	      1.08975608	      0.00000000	      0.00000000	     70.87493679	    -12.82368964	      3.03735055	    101.54808065	      1.77234836	     16.89041235	     -1.18282302	      0.00000000	      0.00000000	    -52.16980310	      0.46622348	      6.91460480	     89.85493480	      0.93872465	     16.44167982	     38.78742710	     17.44925191	      0.00000000	      0.00000000	     89.81035850	      4.20263382	     18.59305730	     36.22757266	     17.99617227	      0.00000000	      0.00000000
      0.03500000	    -16.58267320	     -4.28428386	     -3.09233915	      0.08319374	      1.14213818	     -0.26298609	      0.00000000	      0.50000000	      0.00000000	      0.25000000	     63.02362485	     -0.16600372	     -7.64426982	     49.39156287	      0.86204539	      8.42548317	      1.04478610	      0.00000000	      0.00000000	     70.82351643	    -12.83330562	      3.01757974	    101.48240566	      1.77120211	     16.91512987	     -1.14308197	      0.00000000	      0.00000000	    -52.17061351	      0.45035806	      6.92354700	     89.85429128	      1.17509875	     15.55143968	     38.22917515	     20.64242005	      0.00000000	      0.00000000	     89.80997948	      4.45353622	     17.66268532	     35.63556872	     21.09616564	      0.00000000	      0.00000000
